<?xml version="1.0" standalone="no"?>
<!DOCTYPE svg PUBLIC "-//W3C//DTD SVG 20010904//EN"
 "http://www.w3.org/TR/2001/REC-SVG-20010904/DTD/svg10.dtd">
<svg version="1.0" xmlns="http://www.w3.org/2000/svg"
 width="279.000000pt" height="297.000000pt" viewBox="0 0 279.000000 297.000000"
 preserveAspectRatio="xMidYMid meet">

<g transform="translate(0.000000,297.000000) scale(0.100000,-0.100000)"
fill="#000000" stroke="none">
<path d="M1355 2876 c-71 -31 -101 -102 -74 -173 5 -15 203 -221 438 -458 477
-479 500 -509 564 -695 40 -116 50 -197 44 -344 -6 -161 -24 -230 -93 -372
-142 -289 -410 -479 -726 -513 -377 -42 -735 144 -926 479 -44 78 -89 220
-103 325 -28 211 22 441 133 613 22 34 43 62 46 62 10 0 182 -173 182 -183 0
-5 -15 -41 -34 -80 -47 -98 -66 -179 -66 -281 0 -226 97 -414 283 -552 120
-89 300 -135 451 -116 268 35 472 199 564 454 23 65 26 87 26 203 0 116 -3
139 -27 209 -45 127 -95 192 -336 431 -121 120 -231 225 -244 232 -104 58
-229 -69 -173 -175 8 -15 101 -112 206 -217 106 -104 209 -213 230 -241 119
-158 103 -378 -37 -517 -26 -27 -77 -62 -113 -80 -60 -30 -72 -32 -165 -32
-132 1 -193 24 -276 105 -157 154 -167 378 -26 548 20 23 41 58 47 77 23 70
12 85 -209 308 -113 115 -218 215 -233 223 -62 33 -115 14 -195 -68 -124 -127
-233 -336 -285 -544 -29 -119 -32 -366 -5 -494 79 -369 321 -678 658 -842 185
-90 347 -123 564 -115 172 6 285 31 436 97 296 128 550 406 652 713 70 208 82
458 31 662 -37 149 -119 324 -206 438 -65 85 -864 887 -904 907 -45 23 -58 24
-99 6z"/>
<path d="M935 2467 c-44 -44 -53 -93 -29 -143 27 -55 62 -76 124 -77 48 -1 55
2 86 36 28 30 34 44 34 82 0 88 -47 135 -136 135 -39 0 -51 -5 -79 -33z"/>
</g>
</svg>
