<?xml version="1.0" encoding="utf-8"?>
<!-- Generator: Adobe Illustrator 24.1.0, SVG Export Plug-In . SVG Version: 6.00 Build 0)  -->
<svg version="1.1" id="Layer_1" xmlns="http://www.w3.org/2000/svg" xmlns:xlink="http://www.w3.org/1999/xlink" x="0px" y="0px"
	 viewBox="0 0 512 512" style="enable-background:new 0 0 512 512;" xml:space="preserve">
<style type="text/css">
	.st0{fill:url(#SVGID_1_);}
	.st1{fill:url(#SVGID_2_);}
	.st2{fill:url(#SVGID_3_);}
	.st3{fill:#FFFFFF;}
</style>
<g transform="translate(0.000000,512.000000) scale(0.100000,-0.100000)">
	<linearGradient id="SVGID_1_" gradientUnits="userSpaceOnUse" x1="2508.4858" y1="495.5096" x2="2519.4226" y2="872.8237">
		<stop  offset="0" style="stop-color:#243C8B"/>
		<stop  offset="1" style="stop-color:#973A8C"/>
	</linearGradient>
	<path class="st0" d="M1552,4248.8l-992-795.1V1755.2V56.8h1985h1985v1699.6v1699.6l-981,786.3c-540.3,432-987.6,789.6-994.1,794
		C2548.3,5039.5,2096.6,4685.2,1552,4248.8z M1918.3,3536.8c264.7-211.1,457.2-540.3,517.3-881.5c24.1-137.8,21.9-371.8-4.4-507.5
		c-56.9-289.8-177.2-523.9-381.7-736c-164-171.7-229.7-210-277.8-166.2c-33.9,30.6-25.2,67.8,27.3,111.6
		c337.9,286.5,502,604.8,518.4,1007.3c16.4,404.7-152,785.3-469.2,1057.6c-103.9,87.5-115.9,114.8-74.4,156.4
		C1807.9,3612.3,1831.9,3605.7,1918.3,3536.8z M1564,3077.5c114.8-94.1,225.3-262.5,275.6-423.2c37.2-115.9,42.7-309.5,12-434.2
		c-42.7-182.6-124.7-320.4-264.7-450.6c-83.1-76.6-115.9-88.6-154.2-53.6c-39.4,35-25.2,65.6,77.7,166.2
		c82,80.9,105,111.6,147.6,199c87.5,180.5,103.9,360.9,49.2,541.4c-36.1,120.3-91.9,207.8-198,315
		c-102.8,105-114.8,130.1-73.3,171.7C1465.6,3138.7,1499.5,3130,1564,3077.5z M3318.2,2761.4c41.6-37.2,26.2-72.2-67.8-150.9
		c-235.1-195.8-388.3-451.7-455-760.1c-27.3-125.8-27.3-383.9,0-511.8c64.5-304,215.5-556.7,450.6-756.8
		c99.5-84.2,111.6-111.6,70-153.1c-32.8-32.8-58-27.3-128,28.4c-234,187-405.7,438.6-488.9,715.3c-85.3,286.5-82,591.7,9.8,870.6
		c88.6,269,257,511.8,470.3,683.5C3249.3,2782.2,3285.4,2792,3318.2,2761.4z M1123.2,2671.7c93-41.6,169.5-156.4,169.5-253.7
		c0-158.6-133.4-294.2-290.9-294.2c-58,0-149.8,40.5-192.5,84.2c-140,143.3-105,369.7,70,456.1
		C950.4,2699.1,1055.4,2702.3,1123.2,2671.7z M3657.3,2291.1c32.8-29.5,25.2-74.4-20.8-114.8c-161.9-141.1-237.3-270.1-273.4-462.6
		c-27.3-147.6-3.3-301.9,71.1-453.9c30.6-63.4,62.3-105,141.1-183.7c112.6-113.7,126.9-148.7,74.4-183.7
		c-39.4-25.2-78.7-6.6-168.4,82c-182.6,180.5-274.5,414.5-260.3,662.8c3.3,60.2,14.2,138.9,24.1,175
		c37.2,141.1,136.7,311.7,237.3,405.7C3582.9,2313,3617.9,2327.2,3657.3,2291.1z M4170.2,1865.7c73.3-21.9,161.9-106.1,182.6-175
		c31.7-107.2,2.2-234-70-301.9c-76.6-71.1-213.3-97.3-305.1-59.1c-53.6,23-120.3,86.4-148.7,141.1c-93,179.4,45.9,402.5,253.7,411.2
		C4098,1883.2,4137.4,1875.5,4170.2,1865.7z"/>
	<linearGradient id="SVGID_2_" gradientUnits="userSpaceOnUse" x1="951.7464" y1="540.633" x2="962.6831" y2="917.947">
		<stop  offset="0" style="stop-color:#243C8B"/>
		<stop  offset="1" style="stop-color:#973A8C"/>
	</linearGradient>
	<path class="st1" d="M935.1,2539.4c-133.4-80.9-83.1-273.4,71.1-273.4c87.5,0,147.6,60.2,147.6,148.7
		C1153.9,2527.4,1030.3,2597.4,935.1,2539.4z"/>
	<linearGradient id="SVGID_3_" gradientUnits="userSpaceOnUse" x1="4053.5076" y1="450.7269" x2="4064.4443" y2="828.0409">
		<stop  offset="0" style="stop-color:#243C8B"/>
		<stop  offset="1" style="stop-color:#973A8C"/>
	</linearGradient>
	<path class="st2" d="M3982.1,1698.4c-39.4-38.3-42.7-47-42.7-101.7c0-67.8,23-106.1,76.6-134.5c68.9-36.1,161.9-6.6,199,61.2
		c55.8,105-15.3,217.6-137.8,217.6C4030.2,1741,4019.3,1736.6,3982.1,1698.4z"/>
</g>
<path class="st3" d="M151,323.8c-10.3,10.1-11.7,13.1-7.8,16.6c3.8,3.5,7.1,2.3,15.4-5.4c14-13,22.2-26.8,26.5-45.1
	c3.1-12.5,2.5-31.8-1.2-43.4c-5-16.1-16.1-32.9-27.6-42.3c-6.5-5.2-9.8-6.1-12.8-3.2c-4.2,4.2-3,6.7,7.3,17.2
	c10.6,10.7,16.2,19.5,19.8,31.5c5.5,18,3.8,36.1-4.9,54.1C161.5,312.6,159.2,315.7,151,323.8z"/>
<path class="st3" d="M322.1,348.3c-1.4,24.8,7.8,48.2,26,66.3c9,8.9,12.9,10.7,16.8,8.2c5.2-3.5,3.8-7-7.4-18.4
	c-7.9-7.9-11-12-14.1-18.4c-7.4-15.2-9.8-30.6-7.1-45.4c3.6-19.2,11.2-32.2,27.3-46.3c4.6-4,5.4-8.5,2.1-11.5
	c-3.9-3.6-7.4-2.2-17.5,7.3c-10.1,9.4-20,26.5-23.7,40.6C323.5,334.4,322.4,342.3,322.1,348.3z"/>
<path class="st3" d="M318.8,466.3c7,5.6,9.5,6.1,12.8,2.8c4.2-4.2,3-6.9-7-15.3c-23.5-20-38.6-45.3-45.1-75.7
	c-2.7-12.8-2.7-38.6,0-51.2c6.7-30.8,22-56.4,45.5-76c9.4-7.9,10.9-11.4,6.8-15.1c-3.3-3.1-6.9-2.1-13.9,3.5
	c-21.3,17.2-38.2,41.4-47,68.4c-9.2,27.9-9.5,58.4-1,87.1C278.2,422.4,295.4,447.6,318.8,466.3z"/>
<path class="st3" d="M397.8,379c9.2,3.8,22.9,1.2,30.5-5.9c7.2-6.8,10.2-19.5,7-30.2c-2.1-6.9-10.9-15.3-18.3-17.5
	c-3.3-1-7.2-1.7-8.7-1.6c-20.8,0.9-34.7,23.2-25.4,41.1C385.7,370.4,392.4,376.7,397.8,379z M398.2,342.2c3.7-3.8,4.8-4.3,9.5-4.3
	c12.2,0,19.4,11.3,13.8,21.8c-3.7,6.8-13,9.7-19.9,6.1c-5.4-2.8-7.7-6.7-7.7-13.5C393.9,346.9,394.3,346,398.2,342.2z"/>
<path class="st3" d="M184.8,169.8c31.7,27.2,48.6,65.3,46.9,105.8c-1.6,40.2-18,72.1-51.8,100.7c-5.2,4.4-6.1,8.1-2.7,11.2
	c4.8,4.4,11.4,0.5,27.8-16.6c20.5-21.2,32.5-44.6,38.2-73.6c2.6-13.6,2.8-37,0.4-50.7c-6-34.1-25.3-67-51.7-88.1
	c-8.6-6.9-11-7.5-14.4-4.2C173.2,158.3,174.4,161.1,184.8,169.8z"/>
<path class="st3" d="M80.9,291.2c4.3,4.4,13.5,8.4,19.2,8.4c15.7,0,29.1-13.6,29.1-29.4c0-9.7-7.7-21.2-17-25.4
	c-6.8-3.1-17.3-2.7-24.4,0.8C70.4,254.2,66.9,276.9,80.9,291.2z M93.5,258.1c9.5-5.8,21.9,1.2,21.9,12.5c0,8.9-6,14.9-14.8,14.9
	C85.2,285.4,80.2,266.2,93.5,258.1z"/>
</svg>
